# xmcd
#
# Track frame offsets: 
#        150
#        13030
#        26925
#        42890
#        55832
#        71270
#        82252
#        96337
#        107807
#        120600
#        134967
#        149095
#
# Disc length: 2174 seconds
#
# Revision: 2
# Processed by: cddbd v1.5.2PL0 Copyright (c) Steve Scherf et al.
# Submitted via: ExactAudioCopyFreeDBPlugin 1.0
#
DISCID=b8087c0c
DTITLE=Count Basie - Blues By Basie
DYEAR=1900
DGENRE=
TTITLE0=Tootie
TTITLE1=How Long Blues
TTITLE2=Way Back Blues
TTITLE3=Blues (I Still Think Of Her)
TTITLE4=Harvard Blues
TTITLE5=Bugle Blues
TTITLE6=Take Me Back Baby
TTITLE7=The Golden Bullet
TTITLE8=Nobody Knows
TTITLE9=Royal Garden Blues
TTITLE10=I'm Gonna Move To The Outskirts Of Town
TTITLE11=Bluebeard Blues
EXTD=
EXTT0=
EXTT1=
EXTT2=
EXTT3=
EXTT4=
EXTT5=
EXTT6=
EXTT7=
EXTT8=
EXTT9=
EXTT10=
EXTT11=
PLAYORDER=
